<svg xmlns="http://www.w3.org/2000/svg" viewBox="0 0 197 40" width="197" height="40">
	<defs>
		<linearGradient id="grd1" gradientUnits="userSpaceOnUse"  x1="159.426" y1="22.106" x2="170.23" y2="22.26">
			<stop offset="0" stop-color="#ff3158"  />
			<stop offset="1" stop-color="#ff1249"  />
		</linearGradient>
		<linearGradient id="grd2" gradientUnits="userSpaceOnUse"  x1="155.132" y1="21.768" x2="173.98" y2="21.943">
			<stop offset="0" stop-color="#ff4e70"  />
			<stop offset="1" stop-color="#ff3158"  />
		</linearGradient>
	</defs>
	<style>
		tspan { white-space:pre }
		.shp0 { fill: #222222 } 
		.shp1 { fill: none } 
		.shp2 { fill: none;stroke: #222222;stroke-width: 0.8 } 
		.shp3 { fill: url(#grd1) } 
		.shp4 { fill: url(#grd2) } 
		.shp5 { fill: #030104 } 
	</style>
	<g id="Group_1709">
		<path id="add" class="shp0" d="M168.54 6.05L167.49 5.47C167.48 5.47 167.48 5.46 167.47 5.45C167.47 5.45 167.46 5.44 167.46 5.43C167.46 5.42 167.46 5.41 167.46 5.4C167.46 5.39 167.46 5.38 167.46 5.38L168.05 4.33C168.1 4.25 168.11 4.15 168.09 4.05C168.06 3.96 168 3.88 167.92 3.83C167.83 3.78 167.73 3.77 167.64 3.8C167.55 3.83 167.47 3.9 167.43 3.99L166.85 5.04C166.84 5.04 166.84 5.05 166.83 5.06C166.82 5.06 166.81 5.07 166.8 5.07C166.8 5.07 166.79 5.07 166.78 5.07C166.77 5.07 166.76 5.07 166.75 5.06L165.7 4.48C165.62 4.44 165.53 4.43 165.44 4.46C165.35 4.49 165.28 4.55 165.24 4.63C165.19 4.71 165.18 4.8 165.2 4.89C165.23 4.97 165.28 5.05 165.36 5.1L166.41 5.68C166.42 5.68 166.42 5.69 166.43 5.7C166.44 5.71 166.44 5.71 166.44 5.72C166.44 5.73 166.45 5.74 166.44 5.75C166.44 5.76 166.44 5.77 166.44 5.78L165.85 6.83C165.8 6.91 165.79 7.01 165.81 7.1C165.84 7.2 165.9 7.28 165.98 7.32C166.07 7.37 166.17 7.38 166.26 7.35C166.35 7.32 166.43 7.26 166.47 7.17L167.05 6.12C167.06 6.11 167.06 6.1 167.07 6.1C167.08 6.09 167.09 6.09 167.1 6.08C167.1 6.08 167.11 6.08 167.12 6.08C167.13 6.08 167.14 6.08 167.15 6.09L168.2 6.67C168.28 6.71 168.38 6.72 168.46 6.69C168.55 6.66 168.62 6.6 168.66 6.52C168.71 6.45 168.72 6.35 168.7 6.27C168.67 6.18 168.62 6.1 168.54 6.05L168.54 6.05Z" />
		<path id="minus" class="shp0" d="M164.87 0.17L162.61 1.27C162.52 1.32 162.45 1.4 162.41 1.49C162.38 1.59 162.39 1.7 162.43 1.79C162.48 1.89 162.56 1.96 162.66 1.99C162.75 2.03 162.86 2.02 162.96 1.97L165.22 0.87C165.31 0.83 165.38 0.75 165.41 0.65C165.45 0.55 165.44 0.44 165.4 0.35C165.35 0.26 165.27 0.19 165.17 0.15C165.07 0.12 164.97 0.12 164.87 0.17L164.87 0.17Z" />
		<g id="Ellipse_359">
			<path id="Layer" class="shp1" d="M160.48 7.54C159.7 7.54 159.07 6.91 159.07 6.13C159.07 5.35 159.7 4.73 160.48 4.73C161.26 4.73 161.89 5.35 161.89 6.13C161.89 6.91 161.26 7.54 160.48 7.54Z" />
			<path id="Layer" class="shp2" d="M160.48 7.14C159.92 7.14 159.47 6.69 159.47 6.13C159.47 5.58 159.92 5.13 160.48 5.13C161.04 5.13 161.49 5.58 161.49 6.13C161.49 6.69 161.04 7.14 160.48 7.14Z" />
		</g>
		<path id="Path_29943" fill-rule="evenodd" class="shp0" d="M193.64 20.57C194.12 20.72 194.58 20.94 194.99 21.24C195.4 21.54 195.76 21.91 196.04 22.32C196.33 22.74 196.54 23.2 196.68 23.69C196.81 24.18 196.86 24.69 196.82 25.19C196.85 25.58 196.84 25.97 196.79 26.35C196.73 26.74 196.64 27.11 196.5 27.47C196.36 27.84 196.18 28.18 195.97 28.51C195.75 28.83 195.5 29.13 195.22 29.39C194.15 30.29 192.47 30.74 190.19 30.74L180.92 30.74C180.79 30.75 180.66 30.74 180.54 30.73C180.41 30.71 180.28 30.68 180.16 30.63C180.04 30.59 179.93 30.53 179.82 30.46C179.71 30.4 179.6 30.32 179.51 30.23C179.42 30.14 179.34 30.04 179.28 29.93C179.21 29.82 179.15 29.7 179.11 29.58C179.07 29.46 179.04 29.33 179.02 29.21C179 29.08 178.99 28.95 179 28.82L179 12.56C178.99 12.43 179 12.31 179.02 12.18C179.04 12.05 179.07 11.93 179.11 11.8C179.15 11.68 179.21 11.57 179.28 11.46C179.34 11.35 179.42 11.25 179.51 11.15C179.6 11.06 179.71 10.99 179.81 10.92C179.92 10.85 180.04 10.8 180.16 10.75C180.28 10.71 180.41 10.68 180.53 10.66C180.66 10.64 180.79 10.63 180.92 10.64L189.6 10.64C190.04 10.61 190.48 10.61 190.92 10.65C191.36 10.69 191.79 10.77 192.22 10.88C192.64 10.99 193.06 11.14 193.46 11.33C193.86 11.51 194.24 11.73 194.6 11.98C194.89 12.24 195.14 12.53 195.35 12.85C195.57 13.17 195.75 13.51 195.89 13.87C196.03 14.23 196.13 14.6 196.18 14.98C196.24 15.36 196.25 15.75 196.22 16.13C196.26 16.58 196.22 17.04 196.12 17.48C196.02 17.92 195.85 18.34 195.62 18.73C195.39 19.12 195.1 19.47 194.77 19.77C194.43 20.07 194.05 20.32 193.64 20.51L193.64 20.57ZM189.47 19.04C191.59 19.04 192.65 18.19 192.65 16.49C192.65 14.77 191.59 13.91 189.47 13.91L182.57 13.91L182.57 19.04L189.47 19.04ZM189.98 27.47C192.1 27.47 193.16 26.59 193.16 24.83C193.16 23.11 192.1 22.25 189.98 22.25L182.57 22.25L182.57 27.47L189.98 27.47Z" />
		<path id="Path_29942" fill-rule="evenodd" class="shp0" d="M16.89 10.48C17.01 10.5 17.13 10.53 17.24 10.57C17.35 10.62 17.46 10.67 17.56 10.74C17.66 10.81 17.75 10.89 17.83 10.97C17.92 11.07 17.99 11.17 18.05 11.28C18.11 11.39 18.16 11.5 18.2 11.62C18.24 11.74 18.27 11.86 18.28 11.98C18.3 12.1 18.31 12.23 18.3 12.35L18.3 28.73C18.31 28.88 18.3 29.02 18.28 29.16C18.26 29.3 18.22 29.44 18.18 29.58C18.13 29.72 18.07 29.85 18 29.97C17.92 30.1 17.84 30.21 17.74 30.32C17.65 30.42 17.54 30.51 17.42 30.59C17.31 30.67 17.18 30.74 17.05 30.79C16.92 30.84 16.79 30.88 16.65 30.9C16.51 30.92 16.37 30.93 16.23 30.92C16.03 30.92 15.83 30.9 15.63 30.85C15.44 30.81 15.25 30.74 15.07 30.65C14.89 30.55 14.72 30.44 14.57 30.31C14.42 30.18 14.28 30.03 14.16 29.87L3.57 16.34L3.51 16.34L3.51 29.03C3.52 29.16 3.51 29.28 3.49 29.4C3.48 29.53 3.45 29.65 3.41 29.77C3.37 29.88 3.32 30 3.26 30.11C3.2 30.21 3.13 30.32 3.04 30.41C2.96 30.5 2.87 30.58 2.77 30.64C2.67 30.71 2.56 30.77 2.45 30.81C2.34 30.85 2.22 30.89 2.1 30.9C1.98 30.92 1.86 30.93 1.74 30.92C1.62 30.93 1.5 30.92 1.39 30.9C1.27 30.88 1.16 30.85 1.05 30.81C0.94 30.76 0.83 30.71 0.73 30.64C0.64 30.57 0.55 30.5 0.46 30.41C0.38 30.32 0.31 30.21 0.25 30.11C0.19 30 0.14 29.88 0.1 29.77C0.06 29.65 0.03 29.53 0.02 29.4C0 29.28 -0.01 29.16 0 29.03L0 12.65C-0.01 12.51 0 12.36 0.02 12.22C0.04 12.08 0.08 11.94 0.12 11.8C0.17 11.67 0.23 11.54 0.3 11.41C0.38 11.29 0.46 11.17 0.55 11.06C0.65 10.96 0.76 10.87 0.88 10.79C0.99 10.71 1.12 10.65 1.25 10.6C1.38 10.55 1.51 10.51 1.65 10.49C1.79 10.46 1.93 10.45 2.07 10.46C2.27 10.46 2.46 10.48 2.66 10.53C2.85 10.57 3.04 10.64 3.21 10.73C3.39 10.81 3.56 10.92 3.71 11.05C3.86 11.18 3.99 11.32 4.11 11.48L14.73 25.1L14.79 25.1L14.79 12.35C14.78 12.23 14.79 12.1 14.81 11.98C14.82 11.86 14.85 11.74 14.89 11.62C14.93 11.5 14.98 11.39 15.04 11.28C15.1 11.17 15.17 11.07 15.25 10.97C15.34 10.89 15.43 10.81 15.52 10.74C15.62 10.68 15.73 10.62 15.84 10.58C15.95 10.53 16.06 10.5 16.18 10.48C16.29 10.46 16.41 10.46 16.53 10.46C16.65 10.45 16.77 10.46 16.89 10.48ZM21.63 22.79C21.65 22.53 21.68 22.27 21.73 22.01C21.78 21.75 21.84 21.49 21.91 21.24C21.98 20.99 22.06 20.74 22.15 20.5C22.24 20.27 22.34 20.05 22.45 19.84C22.56 19.63 22.68 19.42 22.81 19.22C22.94 19.02 23.09 18.83 23.24 18.64C23.39 18.46 23.55 18.28 23.73 18.11C23.9 17.94 24.08 17.78 24.27 17.64C24.47 17.49 24.66 17.35 24.87 17.22C25.07 17.09 25.28 16.97 25.5 16.86C25.72 16.75 25.94 16.65 26.17 16.57C26.42 16.47 26.67 16.39 26.93 16.32C27.18 16.25 27.44 16.19 27.7 16.14C27.97 16.1 28.23 16.06 28.5 16.04C28.76 16.02 29.03 16.01 29.29 16.01C29.56 16.01 29.83 16.02 30.09 16.04C30.36 16.06 30.62 16.1 30.89 16.14C31.15 16.19 31.41 16.25 31.66 16.32C31.92 16.39 32.17 16.47 32.42 16.57C32.65 16.65 32.87 16.75 33.09 16.86C33.3 16.97 33.51 17.08 33.72 17.21C33.92 17.34 34.12 17.48 34.31 17.63C34.49 17.78 34.68 17.94 34.85 18.11C35.02 18.28 35.18 18.46 35.33 18.64C35.48 18.83 35.63 19.02 35.76 19.22C35.89 19.42 36.01 19.63 36.12 19.84C36.23 20.06 36.33 20.27 36.42 20.5C36.52 20.74 36.6 20.99 36.68 21.24C36.75 21.49 36.81 21.75 36.86 22.01C36.9 22.26 36.94 22.52 36.96 22.79C36.98 23.05 36.99 23.31 36.99 23.57C36.99 23.83 36.98 24.09 36.96 24.35C36.94 24.61 36.9 24.87 36.86 25.13C36.81 25.39 36.75 25.64 36.68 25.89C36.6 26.14 36.52 26.39 36.42 26.63C36.33 26.85 36.23 27.07 36.12 27.28C36.01 27.49 35.89 27.7 35.76 27.9C35.62 28.1 35.48 28.29 35.33 28.47C35.18 28.66 35.02 28.83 34.85 29C34.68 29.17 34.49 29.33 34.31 29.48C34.12 29.63 33.92 29.77 33.72 29.9C33.51 30.03 33.3 30.14 33.09 30.25C32.87 30.36 32.65 30.46 32.42 30.54C32.17 30.64 31.92 30.72 31.66 30.79C31.41 30.86 31.15 30.92 30.89 30.97C30.62 31.02 30.36 31.05 30.09 31.07C29.83 31.09 29.56 31.1 29.29 31.1C29.03 31.1 28.76 31.09 28.5 31.07C28.23 31.05 27.97 31.02 27.7 30.97C27.44 30.92 27.18 30.86 26.93 30.79C26.67 30.72 26.42 30.64 26.17 30.54C25.94 30.46 25.72 30.36 25.5 30.25C25.28 30.14 25.07 30.02 24.87 29.89C24.66 29.76 24.47 29.62 24.27 29.47C24.08 29.32 23.9 29.16 23.73 29C23.56 28.83 23.39 28.65 23.24 28.47C23.09 28.29 22.95 28.09 22.81 27.9C22.68 27.7 22.56 27.49 22.45 27.28C22.34 27.07 22.24 26.85 22.15 26.63C22.06 26.38 21.98 26.14 21.91 25.89C21.84 25.64 21.78 25.38 21.73 25.13C21.68 24.87 21.65 24.61 21.63 24.35C21.61 24.09 21.6 23.83 21.6 23.57C21.6 23.31 21.61 23.05 21.63 22.79ZM24.98 24.46C25.02 24.75 25.1 25.04 25.2 25.32C25.31 25.6 25.44 25.87 25.59 26.12C25.75 26.37 25.93 26.61 26.13 26.83C26.34 27.03 26.56 27.22 26.81 27.38C27.05 27.54 27.31 27.68 27.58 27.78C27.85 27.89 28.13 27.97 28.42 28.02C28.71 28.07 29 28.08 29.29 28.07C29.59 28.09 29.88 28.07 30.17 28.02C30.46 27.97 30.74 27.89 31.02 27.79C31.29 27.68 31.55 27.55 31.79 27.38C32.04 27.22 32.27 27.04 32.47 26.83C32.67 26.61 32.85 26.37 33 26.12C33.16 25.86 33.29 25.6 33.39 25.32C33.49 25.04 33.57 24.75 33.61 24.46C33.66 24.17 33.67 23.87 33.66 23.57C33.67 23.27 33.66 22.97 33.61 22.68C33.57 22.38 33.49 22.09 33.39 21.81C33.29 21.53 33.16 21.26 33.01 21C32.85 20.75 32.67 20.51 32.47 20.29C32.27 20.08 32.04 19.89 31.79 19.73C31.55 19.57 31.29 19.43 31.02 19.33C30.74 19.22 30.46 19.14 30.17 19.09C29.88 19.05 29.59 19.03 29.29 19.04C29 19.03 28.71 19.05 28.42 19.1C28.14 19.15 27.85 19.22 27.58 19.33C27.31 19.44 27.05 19.57 26.81 19.73C26.57 19.89 26.34 20.08 26.13 20.29C25.93 20.51 25.75 20.75 25.59 21C25.44 21.26 25.3 21.53 25.2 21.81C25.1 22.09 25.02 22.38 24.98 22.68C24.93 22.97 24.92 23.27 24.93 23.57C24.92 23.87 24.93 24.17 24.98 24.46ZM48.06 16.1C48.17 16.1 48.28 16.1 48.39 16.12C48.49 16.13 48.6 16.16 48.7 16.2C48.81 16.23 48.9 16.28 49 16.34C49.09 16.39 49.18 16.46 49.26 16.53C49.34 16.61 49.41 16.7 49.46 16.79C49.52 16.88 49.57 16.98 49.61 17.09C49.65 17.19 49.68 17.3 49.69 17.4C49.71 17.51 49.72 17.62 49.71 17.73C49.72 17.84 49.71 17.95 49.69 18.06C49.68 18.17 49.65 18.28 49.61 18.38C49.57 18.48 49.52 18.58 49.46 18.68C49.41 18.77 49.34 18.85 49.26 18.93C49.18 19.01 49.09 19.07 49 19.13C48.9 19.18 48.81 19.23 48.7 19.27C48.6 19.31 48.49 19.33 48.39 19.35C48.28 19.36 48.17 19.37 48.06 19.36C47.75 19.35 47.45 19.36 47.15 19.4C46.84 19.44 46.55 19.52 46.26 19.62C45.97 19.72 45.69 19.85 45.43 20.01C45.17 20.17 44.92 20.36 44.7 20.56C44.48 20.83 44.29 21.12 44.12 21.42C43.96 21.72 43.82 22.04 43.72 22.37C43.62 22.7 43.55 23.04 43.51 23.38C43.47 23.72 43.47 24.07 43.5 24.41L43.5 29.14C43.51 29.25 43.5 29.37 43.49 29.49C43.47 29.61 43.45 29.72 43.41 29.83C43.37 29.95 43.32 30.05 43.26 30.16C43.21 30.26 43.14 30.36 43.06 30.45C42.98 30.53 42.89 30.6 42.8 30.66C42.71 30.72 42.6 30.77 42.5 30.82C42.39 30.86 42.28 30.89 42.17 30.9C42.06 30.92 41.95 30.93 41.83 30.92C41.72 30.93 41.61 30.92 41.5 30.91C41.39 30.89 41.28 30.86 41.17 30.82C41.07 30.78 40.97 30.73 40.87 30.67C40.78 30.61 40.69 30.54 40.61 30.46C40.53 30.37 40.46 30.27 40.41 30.17C40.35 30.07 40.3 29.96 40.26 29.85C40.22 29.74 40.2 29.62 40.18 29.5C40.17 29.39 40.16 29.27 40.17 29.15L40.17 17.96C40.16 17.85 40.17 17.73 40.19 17.61C40.2 17.5 40.23 17.39 40.27 17.27C40.3 17.16 40.35 17.06 40.41 16.96C40.47 16.86 40.53 16.76 40.61 16.67C40.69 16.59 40.77 16.52 40.87 16.45C40.96 16.39 41.06 16.34 41.17 16.3C41.28 16.26 41.38 16.23 41.5 16.21C41.61 16.19 41.72 16.19 41.83 16.19C41.95 16.19 42.06 16.19 42.17 16.21C42.28 16.23 42.39 16.26 42.5 16.3C42.6 16.34 42.71 16.39 42.8 16.45C42.89 16.51 42.98 16.59 43.06 16.67C43.14 16.75 43.2 16.85 43.26 16.95C43.32 17.05 43.37 17.15 43.4 17.26C43.44 17.37 43.47 17.48 43.48 17.6C43.5 17.71 43.51 17.83 43.5 17.94L43.5 18.48L43.56 18.48C43.78 18.09 44.06 17.74 44.39 17.43C44.71 17.12 45.07 16.85 45.47 16.64C45.87 16.44 46.29 16.28 46.73 16.19C47.16 16.1 47.61 16.07 48.06 16.1ZM62.27 27.94C62.26 28.01 62.24 28.09 62.23 28.16C62.21 28.23 62.19 28.3 62.16 28.38C62.13 28.45 62.1 28.51 62.07 28.58C61.97 28.79 61.86 28.98 61.72 29.16C61.59 29.35 61.45 29.52 61.29 29.68C61.13 29.84 60.96 29.99 60.77 30.12C60.59 30.25 60.4 30.37 60.19 30.47C59.96 30.58 59.73 30.68 59.48 30.76C59.24 30.84 58.99 30.91 58.74 30.96C58.49 31.02 58.23 31.05 57.98 31.08C57.72 31.1 57.47 31.11 57.21 31.1C56.84 31.12 56.46 31.11 56.09 31.05C55.72 30.99 55.36 30.9 55.01 30.77C54.66 30.64 54.32 30.47 54.01 30.27C53.69 30.07 53.4 29.83 53.13 29.57C52.87 29.28 52.65 28.97 52.45 28.64C52.26 28.3 52.1 27.95 51.97 27.59C51.85 27.22 51.76 26.85 51.7 26.47C51.65 26.08 51.64 25.7 51.66 25.31L51.66 13.19C51.65 13.07 51.66 12.96 51.67 12.84C51.69 12.72 51.71 12.61 51.75 12.5C51.79 12.38 51.84 12.28 51.9 12.17C51.95 12.07 52.02 11.98 52.1 11.89C52.18 11.81 52.27 11.74 52.36 11.68C52.46 11.61 52.56 11.56 52.66 11.52C52.77 11.48 52.88 11.45 52.99 11.44C53.1 11.42 53.21 11.42 53.32 11.42C53.44 11.42 53.55 11.42 53.66 11.44C53.77 11.45 53.88 11.48 53.99 11.52C54.09 11.56 54.19 11.61 54.29 11.68C54.38 11.74 54.47 11.81 54.55 11.89C54.63 11.98 54.7 12.07 54.75 12.17C54.81 12.28 54.86 12.38 54.9 12.5C54.94 12.61 54.96 12.72 54.98 12.84C54.99 12.96 55 13.07 54.99 13.19L54.99 16.37L59.97 16.37C60.08 16.36 60.19 16.37 60.3 16.38C60.41 16.4 60.51 16.42 60.62 16.45C60.72 16.49 60.82 16.53 60.92 16.59C61.01 16.64 61.1 16.7 61.18 16.77C61.26 16.84 61.32 16.93 61.38 17.01C61.44 17.1 61.49 17.19 61.52 17.29C61.56 17.38 61.59 17.48 61.6 17.59C61.62 17.69 61.63 17.79 61.62 17.9C61.63 18 61.62 18.1 61.6 18.2C61.59 18.3 61.56 18.4 61.52 18.49C61.48 18.59 61.44 18.68 61.38 18.76C61.32 18.85 61.26 18.93 61.18 19C61.1 19.07 61.01 19.13 60.92 19.18C60.82 19.24 60.72 19.28 60.62 19.32C60.51 19.35 60.41 19.38 60.3 19.39C60.19 19.4 60.08 19.41 59.97 19.4L54.99 19.4L54.99 25.4C54.98 25.58 54.98 25.76 55 25.93C55.03 26.11 55.06 26.28 55.12 26.45C55.17 26.62 55.24 26.78 55.32 26.94C55.41 27.1 55.51 27.24 55.62 27.38C55.73 27.5 55.85 27.6 55.99 27.69C56.12 27.78 56.26 27.86 56.41 27.92C56.56 27.98 56.72 28.02 56.88 28.05C57.04 28.07 57.2 28.08 57.36 28.07C57.47 28.07 57.58 28.07 57.69 28.06C57.8 28.05 57.9 28.03 58.01 28C58.12 27.97 58.22 27.94 58.32 27.9C58.43 27.86 58.52 27.81 58.62 27.76C58.71 27.71 58.79 27.65 58.88 27.59C58.96 27.52 59.04 27.46 59.11 27.38C59.18 27.31 59.25 27.24 59.31 27.16C59.38 27.07 59.44 26.99 59.49 26.9C59.52 26.85 59.56 26.8 59.6 26.75C59.64 26.7 59.68 26.65 59.72 26.61C59.77 26.57 59.81 26.52 59.86 26.48C59.91 26.45 59.96 26.41 60.01 26.38C60.07 26.34 60.13 26.31 60.19 26.29C60.25 26.26 60.31 26.24 60.37 26.22C60.43 26.21 60.49 26.2 60.56 26.19C60.62 26.18 60.69 26.18 60.75 26.18C60.85 26.17 60.95 26.18 61.05 26.19C61.15 26.21 61.24 26.23 61.34 26.27C61.43 26.3 61.52 26.34 61.61 26.39C61.69 26.44 61.78 26.5 61.85 26.57C61.93 26.64 61.99 26.72 62.05 26.81C62.11 26.9 62.15 26.99 62.19 27.09C62.23 27.19 62.25 27.29 62.27 27.4C62.28 27.5 62.29 27.61 62.28 27.71C62.28 27.79 62.28 27.86 62.27 27.94ZM72.78 16.01C73.2 15.98 73.62 16 74.03 16.06C74.44 16.12 74.85 16.22 75.24 16.37C75.63 16.52 76 16.71 76.36 16.93C76.71 17.16 77.03 17.42 77.32 17.72C77.6 18.07 77.85 18.44 78.05 18.84C78.26 19.23 78.43 19.64 78.56 20.07C78.7 20.49 78.79 20.93 78.84 21.37C78.89 21.81 78.9 22.26 78.87 22.7L78.87 29.15C78.88 29.27 78.87 29.39 78.86 29.5C78.84 29.62 78.82 29.74 78.78 29.85C78.74 29.96 78.69 30.07 78.63 30.17C78.58 30.27 78.51 30.37 78.43 30.46C78.35 30.54 78.26 30.61 78.17 30.67C78.07 30.73 77.97 30.78 77.87 30.82C77.76 30.86 77.65 30.89 77.54 30.91C77.43 30.92 77.32 30.93 77.2 30.92C77.09 30.93 76.98 30.92 76.87 30.91C76.76 30.89 76.65 30.86 76.54 30.82C76.44 30.78 76.34 30.73 76.24 30.67C76.15 30.61 76.06 30.54 75.98 30.46C75.9 30.37 75.83 30.27 75.78 30.17C75.72 30.07 75.67 29.96 75.63 29.85C75.59 29.74 75.57 29.62 75.55 29.5C75.54 29.39 75.53 29.27 75.54 29.15L75.54 23.06C75.56 22.8 75.55 22.53 75.52 22.26C75.49 22 75.44 21.73 75.36 21.48C75.29 21.22 75.18 20.97 75.06 20.74C74.94 20.5 74.79 20.27 74.63 20.06C74.45 19.88 74.26 19.73 74.05 19.59C73.85 19.46 73.62 19.34 73.39 19.26C73.16 19.17 72.92 19.1 72.67 19.07C72.43 19.03 72.18 19.02 71.93 19.04C71.66 19.03 71.39 19.04 71.12 19.09C70.85 19.13 70.59 19.21 70.34 19.31C70.09 19.42 69.86 19.55 69.63 19.7C69.41 19.86 69.21 20.04 69.03 20.24C68.85 20.47 68.68 20.72 68.55 20.97C68.41 21.23 68.29 21.5 68.2 21.78C68.11 22.06 68.05 22.35 68.01 22.64C67.97 22.93 67.96 23.22 67.98 23.51L67.98 29.15C67.99 29.27 67.98 29.39 67.97 29.5C67.95 29.62 67.93 29.74 67.89 29.85C67.85 29.96 67.8 30.07 67.74 30.17C67.69 30.27 67.62 30.37 67.54 30.46C67.46 30.54 67.37 30.61 67.28 30.67C67.18 30.73 67.08 30.78 66.98 30.82C66.87 30.86 66.76 30.89 66.65 30.91C66.54 30.92 66.43 30.93 66.31 30.92C66.2 30.93 66.09 30.92 65.98 30.91C65.87 30.89 65.76 30.86 65.65 30.82C65.55 30.78 65.45 30.73 65.35 30.67C65.26 30.61 65.17 30.54 65.09 30.46C65.01 30.37 64.94 30.27 64.89 30.17C64.83 30.07 64.78 29.96 64.74 29.85C64.7 29.74 64.68 29.62 64.66 29.5C64.65 29.39 64.64 29.27 64.65 29.15L64.65 11.33C64.64 11.21 64.65 11.1 64.66 10.98C64.68 10.86 64.7 10.75 64.74 10.64C64.78 10.52 64.83 10.42 64.89 10.31C64.94 10.21 65.01 10.12 65.09 10.03C65.17 9.95 65.26 9.88 65.35 9.82C65.45 9.75 65.55 9.7 65.65 9.66C65.76 9.62 65.87 9.59 65.98 9.58C66.09 9.56 66.2 9.56 66.31 9.56C66.43 9.56 66.54 9.56 66.65 9.58C66.76 9.59 66.87 9.62 66.98 9.66C67.08 9.7 67.18 9.75 67.28 9.82C67.37 9.88 67.46 9.95 67.54 10.03C67.62 10.12 67.69 10.21 67.74 10.31C67.8 10.42 67.85 10.52 67.89 10.64C67.93 10.75 67.95 10.86 67.97 10.98C67.98 11.1 67.99 11.21 67.98 11.33L67.98 18.05L68.04 18.05C68.17 17.89 68.31 17.74 68.46 17.59C68.61 17.45 68.77 17.31 68.93 17.19C69.1 17.06 69.27 16.94 69.45 16.84C69.63 16.73 69.82 16.64 70 16.55C70.22 16.46 70.45 16.38 70.67 16.31C70.9 16.24 71.13 16.18 71.36 16.13C71.6 16.09 71.83 16.05 72.07 16.03C72.31 16.01 72.54 16.01 72.78 16.01ZM94.92 29.18C94.73 29.36 94.53 29.53 94.32 29.69C94.11 29.84 93.89 29.98 93.66 30.11C93.43 30.24 93.2 30.36 92.95 30.46C92.69 30.57 92.41 30.66 92.13 30.75C91.86 30.83 91.57 30.9 91.29 30.95C91 31.01 90.71 31.05 90.43 31.07C90.14 31.1 89.85 31.11 89.55 31.1C89.28 31.11 89.01 31.1 88.73 31.07C88.46 31.05 88.18 31.02 87.91 30.97C87.64 30.92 87.38 30.86 87.11 30.79C86.84 30.72 86.58 30.64 86.33 30.54C86.09 30.46 85.87 30.36 85.65 30.25C85.43 30.14 85.21 30.03 85 29.9C84.8 29.77 84.59 29.63 84.4 29.48C84.21 29.33 84.02 29.17 83.84 29C83.67 28.84 83.5 28.66 83.35 28.48C83.19 28.29 83.05 28.1 82.92 27.9C82.78 27.7 82.66 27.5 82.55 27.29C82.44 27.07 82.34 26.85 82.25 26.63C82.16 26.39 82.07 26.14 82 25.89C81.93 25.64 81.87 25.39 81.82 25.13C81.78 24.87 81.74 24.61 81.72 24.35C81.7 24.09 81.69 23.83 81.69 23.57C81.69 23.31 81.7 23.05 81.72 22.79C81.74 22.53 81.78 22.27 81.83 22.01C81.87 21.75 81.93 21.49 82 21.24C82.07 20.99 82.16 20.74 82.25 20.5C82.34 20.27 82.43 20.05 82.54 19.84C82.65 19.63 82.78 19.42 82.91 19.22C83.04 19.02 83.18 18.83 83.33 18.64C83.49 18.46 83.65 18.28 83.82 18.11C84 17.94 84.18 17.78 84.37 17.64C84.56 17.49 84.76 17.35 84.96 17.22C85.17 17.09 85.38 16.97 85.6 16.86C85.82 16.75 86.04 16.65 86.26 16.57C86.51 16.47 86.77 16.39 87.03 16.32C87.28 16.25 87.54 16.19 87.81 16.14C88.07 16.1 88.33 16.06 88.6 16.04C88.87 16.02 89.13 16.01 89.4 16.01C89.65 16.01 89.9 16.02 90.14 16.04C90.39 16.06 90.64 16.09 90.88 16.14C91.12 16.18 91.37 16.24 91.6 16.3C91.84 16.37 92.08 16.45 92.31 16.54C92.52 16.62 92.74 16.71 92.94 16.81C93.15 16.91 93.35 17.02 93.55 17.14C93.74 17.26 93.93 17.39 94.12 17.53C94.3 17.66 94.48 17.81 94.65 17.96C94.81 18.11 94.97 18.27 95.12 18.43C95.26 18.59 95.4 18.76 95.53 18.94C95.66 19.12 95.78 19.3 95.89 19.49C96 19.68 96.1 19.88 96.19 20.08C96.29 20.28 96.37 20.49 96.44 20.7C96.51 20.91 96.57 21.13 96.61 21.34C96.66 21.56 96.7 21.78 96.72 22C96.74 22.23 96.75 22.45 96.75 22.67L96.75 22.82C96.76 22.95 96.75 23.08 96.73 23.21C96.71 23.33 96.67 23.46 96.63 23.58C96.58 23.7 96.52 23.81 96.45 23.92C96.38 24.03 96.3 24.13 96.21 24.22C96.12 24.31 96.01 24.38 95.9 24.45C95.79 24.52 95.68 24.58 95.56 24.62C95.44 24.67 95.31 24.7 95.19 24.72C95.06 24.74 94.93 24.75 94.8 24.74L85.17 24.74C85.21 24.99 85.27 25.23 85.36 25.46C85.44 25.69 85.55 25.92 85.67 26.13C85.8 26.34 85.94 26.54 86.1 26.73C86.27 26.92 86.45 27.09 86.64 27.24C86.85 27.4 87.07 27.54 87.3 27.65C87.53 27.77 87.77 27.87 88.02 27.95C88.26 28.03 88.52 28.08 88.77 28.12C89.03 28.15 89.29 28.17 89.55 28.16C89.73 28.16 89.9 28.16 90.08 28.14C90.25 28.12 90.43 28.1 90.6 28.06C90.77 28.03 90.94 27.99 91.11 27.93C91.28 27.88 91.44 27.81 91.6 27.74C91.74 27.68 91.87 27.61 92 27.54C92.13 27.46 92.25 27.38 92.37 27.29C92.49 27.2 92.61 27.11 92.72 27.01C92.83 26.91 92.93 26.8 93.03 26.69C93.1 26.6 93.19 26.51 93.28 26.44C93.37 26.37 93.47 26.3 93.58 26.25C93.68 26.2 93.79 26.16 93.91 26.13C94.02 26.11 94.14 26.09 94.26 26.09C94.36 26.09 94.47 26.09 94.57 26.11C94.67 26.12 94.78 26.15 94.87 26.18C94.97 26.22 95.06 26.27 95.15 26.32C95.24 26.38 95.32 26.44 95.4 26.51C95.47 26.59 95.53 26.67 95.59 26.75C95.64 26.84 95.69 26.93 95.72 27.02C95.76 27.12 95.79 27.22 95.8 27.32C95.82 27.42 95.82 27.52 95.82 27.62C95.82 27.71 95.81 27.8 95.8 27.89C95.78 27.98 95.76 28.06 95.73 28.15C95.7 28.23 95.66 28.31 95.61 28.39C95.57 28.47 95.52 28.54 95.46 28.61C95.29 28.81 95.11 29 94.92 29.18ZM88.67 18.99C88.43 19.03 88.19 19.08 87.96 19.15C87.72 19.23 87.5 19.32 87.28 19.43C87.06 19.54 86.85 19.66 86.65 19.81C86.47 19.94 86.29 20.1 86.13 20.27C85.97 20.44 85.83 20.62 85.7 20.82C85.57 21.02 85.46 21.22 85.38 21.44C85.29 21.65 85.22 21.88 85.17 22.11L93.54 22.11C93.49 21.88 93.43 21.66 93.34 21.44C93.25 21.23 93.15 21.02 93.03 20.83C92.9 20.63 92.76 20.45 92.61 20.28C92.45 20.1 92.28 19.95 92.1 19.81C91.91 19.66 91.7 19.53 91.49 19.42C91.27 19.31 91.05 19.22 90.82 19.15C90.59 19.08 90.36 19.02 90.12 18.99C89.88 18.96 89.64 18.94 89.4 18.95C89.16 18.95 88.91 18.96 88.67 18.99ZM108.98 16.06C109.39 16.12 109.8 16.22 110.19 16.37C110.58 16.52 110.95 16.71 111.31 16.93C111.66 17.16 111.98 17.42 112.28 17.72C112.55 18.07 112.8 18.44 113 18.84C113.21 19.23 113.38 19.64 113.51 20.07C113.65 20.49 113.74 20.93 113.79 21.37C113.84 21.81 113.85 22.26 113.82 22.7L113.82 29.15C113.83 29.27 113.82 29.39 113.81 29.5C113.79 29.62 113.77 29.74 113.73 29.85C113.69 29.96 113.64 30.07 113.58 30.17C113.53 30.27 113.46 30.37 113.38 30.46C113.3 30.54 113.21 30.61 113.12 30.67C113.02 30.73 112.92 30.78 112.82 30.82C112.71 30.86 112.6 30.89 112.49 30.91C112.38 30.92 112.27 30.93 112.16 30.92C112.04 30.93 111.93 30.92 111.82 30.91C111.71 30.89 111.6 30.86 111.49 30.82C111.39 30.78 111.29 30.73 111.19 30.67C111.1 30.61 111.01 30.54 110.93 30.46C110.85 30.37 110.78 30.27 110.73 30.17C110.67 30.07 110.62 29.96 110.58 29.85C110.54 29.74 110.52 29.62 110.5 29.5C110.49 29.39 110.48 29.27 110.49 29.15L110.49 23.06C110.51 22.8 110.5 22.53 110.47 22.26C110.44 22 110.39 21.73 110.31 21.48C110.24 21.22 110.13 20.97 110.01 20.74C109.89 20.5 109.74 20.27 109.58 20.06C109.4 19.88 109.21 19.73 109 19.59C108.8 19.46 108.57 19.34 108.34 19.26C108.11 19.17 107.87 19.1 107.62 19.07C107.38 19.03 107.13 19.02 106.88 19.04C106.61 19.03 106.34 19.04 106.07 19.09C105.8 19.13 105.54 19.21 105.29 19.31C105.04 19.42 104.81 19.55 104.58 19.7C104.36 19.86 104.16 20.04 103.98 20.24C103.8 20.47 103.63 20.72 103.5 20.97C103.36 21.23 103.24 21.5 103.15 21.78C103.06 22.06 103 22.35 102.96 22.64C102.93 22.93 102.92 23.22 102.93 23.51L102.93 29.15C102.94 29.27 102.94 29.39 102.92 29.5C102.91 29.62 102.88 29.74 102.84 29.85C102.8 29.96 102.76 30.07 102.7 30.17C102.64 30.27 102.57 30.37 102.49 30.46C102.41 30.54 102.33 30.61 102.23 30.67C102.14 30.73 102.04 30.78 101.93 30.82C101.83 30.86 101.72 30.89 101.6 30.91C101.49 30.92 101.38 30.93 101.27 30.92C101.16 30.93 101.04 30.92 100.93 30.91C100.82 30.89 100.71 30.86 100.6 30.82C100.5 30.78 100.4 30.73 100.3 30.67C100.21 30.61 100.12 30.54 100.04 30.46C99.96 30.37 99.9 30.27 99.84 30.17C99.78 30.07 99.73 29.96 99.69 29.85C99.66 29.74 99.63 29.62 99.61 29.5C99.6 29.39 99.59 29.27 99.6 29.15L99.6 17.96C99.59 17.84 99.6 17.73 99.61 17.61C99.63 17.49 99.66 17.38 99.69 17.27C99.73 17.15 99.78 17.05 99.84 16.94C99.9 16.84 99.96 16.75 100.04 16.66C100.12 16.58 100.21 16.51 100.3 16.45C100.4 16.38 100.5 16.33 100.6 16.29C100.71 16.25 100.82 16.22 100.93 16.21C101.04 16.19 101.15 16.19 101.27 16.19C101.38 16.19 101.49 16.19 101.6 16.21C101.71 16.22 101.82 16.25 101.93 16.29C102.03 16.33 102.14 16.38 102.23 16.45C102.32 16.51 102.41 16.58 102.49 16.66C102.57 16.75 102.64 16.84 102.7 16.94C102.75 17.05 102.8 17.15 102.84 17.27C102.88 17.38 102.9 17.49 102.92 17.61C102.93 17.73 102.94 17.84 102.93 17.96L102.93 18.05L102.99 18.05C103.12 17.89 103.26 17.74 103.41 17.59C103.56 17.45 103.72 17.31 103.89 17.19C104.05 17.06 104.22 16.94 104.4 16.84C104.58 16.73 104.77 16.64 104.96 16.55C105.17 16.46 105.4 16.38 105.62 16.31C105.85 16.24 106.08 16.18 106.31 16.13C106.55 16.09 106.78 16.05 107.02 16.03C107.26 16.01 107.49 16.01 107.73 16.01C108.15 15.98 108.57 16 108.98 16.06ZM130.33 9.56C130.33 9.56 130.33 9.56 130.33 9.56C130.33 9.56 130.33 9.56 130.33 9.56L130.33 9.56ZM130.67 9.58C130.78 9.6 130.9 9.63 131 9.67C131.11 9.71 131.21 9.76 131.31 9.83C131.4 9.89 131.49 9.96 131.57 10.04C131.65 10.13 131.72 10.22 131.78 10.32C131.84 10.43 131.89 10.53 131.93 10.64C131.96 10.75 131.99 10.87 132.01 10.98C132.03 11.1 132.03 11.22 132.03 11.33L132.03 29.15C132.03 29.27 132.03 29.39 132.01 29.51C132 29.62 131.97 29.74 131.93 29.85C131.89 29.96 131.84 30.07 131.78 30.17C131.72 30.27 131.65 30.37 131.57 30.46C131.49 30.54 131.4 30.61 131.3 30.67C131.21 30.73 131.11 30.78 131 30.82C130.89 30.86 130.78 30.89 130.67 30.91C130.56 30.92 130.44 30.93 130.33 30.92C130.22 30.93 130.11 30.92 130 30.9C129.89 30.89 129.79 30.86 129.69 30.82C129.58 30.78 129.49 30.73 129.39 30.67C129.3 30.61 129.22 30.54 129.14 30.46C129.06 30.37 129 30.27 128.94 30.17C128.88 30.07 128.83 29.96 128.79 29.85C128.76 29.74 128.73 29.62 128.71 29.5C128.7 29.39 128.69 29.27 128.7 29.15L128.7 29L128.64 29C128.5 29.17 128.35 29.33 128.19 29.48C128.03 29.64 127.86 29.78 127.69 29.91C127.51 30.04 127.32 30.16 127.13 30.27C126.94 30.38 126.74 30.48 126.54 30.56C126.31 30.66 126.08 30.74 125.85 30.81C125.61 30.88 125.37 30.93 125.13 30.98C124.89 31.02 124.64 31.06 124.4 31.08C124.15 31.1 123.91 31.11 123.66 31.1C123.42 31.11 123.17 31.1 122.92 31.08C122.68 31.05 122.44 31.02 122.19 30.98C121.95 30.93 121.71 30.87 121.48 30.8C121.24 30.74 121.01 30.65 120.78 30.56C120.57 30.48 120.37 30.38 120.17 30.27C119.97 30.16 119.78 30.04 119.59 29.92C119.4 29.79 119.22 29.65 119.05 29.5C118.88 29.35 118.72 29.2 118.56 29.03C118.4 28.86 118.25 28.68 118.12 28.5C117.98 28.31 117.85 28.12 117.73 27.92C117.61 27.72 117.5 27.52 117.4 27.31C117.3 27.1 117.22 26.88 117.14 26.66C117.05 26.41 116.98 26.16 116.92 25.91C116.85 25.65 116.8 25.4 116.76 25.14C116.71 24.88 116.68 24.62 116.66 24.36C116.64 24.1 116.64 23.83 116.64 23.57C116.64 23.31 116.65 23.05 116.66 22.78C116.68 22.52 116.71 22.26 116.76 22C116.8 21.74 116.85 21.48 116.92 21.22C116.98 20.97 117.05 20.72 117.14 20.47C117.22 20.25 117.3 20.03 117.4 19.82C117.5 19.61 117.61 19.4 117.73 19.2C117.85 19 117.98 18.81 118.12 18.62C118.26 18.43 118.41 18.25 118.56 18.08C118.72 17.92 118.88 17.76 119.06 17.61C119.23 17.47 119.41 17.33 119.59 17.2C119.78 17.07 119.97 16.95 120.17 16.84C120.37 16.74 120.58 16.64 120.78 16.55C121.01 16.46 121.25 16.38 121.48 16.31C121.72 16.24 121.96 16.18 122.2 16.14C122.44 16.09 122.68 16.06 122.93 16.04C123.17 16.02 123.42 16.01 123.66 16.01C123.91 16.01 124.16 16.02 124.4 16.04C124.65 16.06 124.89 16.09 125.13 16.14C125.37 16.18 125.61 16.24 125.85 16.31C126.09 16.38 126.32 16.46 126.54 16.55C126.75 16.64 126.95 16.73 127.14 16.84C127.33 16.95 127.51 17.07 127.69 17.2C127.87 17.34 128.04 17.48 128.19 17.63C128.35 17.78 128.5 17.94 128.64 18.11L128.73 18.11L128.7 11.33C128.7 11.22 128.7 11.1 128.72 10.98C128.73 10.87 128.76 10.76 128.8 10.65C128.84 10.54 128.88 10.43 128.94 10.33C129 10.23 129.06 10.13 129.14 10.04C129.22 9.96 129.3 9.89 129.39 9.83C129.48 9.76 129.58 9.71 129.68 9.67C129.79 9.63 129.89 9.6 130 9.58C130.11 9.56 130.22 9.56 130.33 9.56C130.45 9.56 130.56 9.56 130.67 9.58ZM124.3 28.07C124.3 28.07 124.3 28.07 124.3 28.07C124.3 28.07 124.3 28.07 124.3 28.07L124.3 28.07ZM124.76 28.06C124.91 28.04 125.06 28.02 125.21 27.99C125.36 27.97 125.5 27.93 125.65 27.89C125.8 27.85 125.94 27.8 126.08 27.74C126.21 27.69 126.34 27.63 126.47 27.57C126.59 27.5 126.71 27.43 126.83 27.35C126.95 27.27 127.06 27.19 127.17 27.1C127.28 27.01 127.38 26.91 127.48 26.81C127.58 26.71 127.67 26.6 127.76 26.49C127.85 26.38 127.93 26.27 128 26.15C128.08 26.03 128.15 25.9 128.21 25.78C128.28 25.65 128.33 25.52 128.38 25.39C128.43 25.24 128.48 25.1 128.52 24.95C128.56 24.8 128.6 24.65 128.62 24.49C128.65 24.34 128.67 24.19 128.68 24.03C128.69 23.88 128.7 23.73 128.7 23.57C128.7 23.42 128.69 23.26 128.68 23.11C128.67 22.95 128.65 22.8 128.62 22.64C128.6 22.49 128.56 22.34 128.52 22.19C128.48 22.04 128.44 21.89 128.38 21.74C128.34 21.61 128.28 21.48 128.22 21.35C128.15 21.22 128.09 21.1 128.01 20.97C127.93 20.85 127.85 20.74 127.76 20.62C127.68 20.51 127.58 20.4 127.48 20.3C127.39 20.2 127.28 20.11 127.17 20.02C127.06 19.93 126.95 19.84 126.83 19.76C126.71 19.69 126.59 19.61 126.47 19.55C126.34 19.48 126.22 19.42 126.08 19.37C125.94 19.32 125.8 19.27 125.65 19.23C125.51 19.18 125.36 19.15 125.21 19.12C125.06 19.09 124.91 19.07 124.76 19.06C124.61 19.05 124.46 19.04 124.31 19.04C124.02 19.03 123.73 19.05 123.44 19.1C123.16 19.15 122.88 19.23 122.61 19.33C122.34 19.44 122.08 19.57 121.84 19.74C121.6 19.9 121.38 20.08 121.18 20.29C120.97 20.51 120.79 20.75 120.64 21C120.48 21.26 120.35 21.53 120.25 21.81C120.14 22.09 120.07 22.38 120.02 22.68C119.98 22.97 119.96 23.27 119.98 23.57C119.96 23.87 119.98 24.17 120.03 24.46C120.07 24.75 120.15 25.04 120.25 25.32C120.35 25.6 120.48 25.87 120.64 26.12C120.79 26.37 120.97 26.61 121.18 26.83C121.38 27.03 121.6 27.22 121.84 27.38C122.08 27.54 122.34 27.67 122.61 27.78C122.88 27.89 123.16 27.97 123.44 28.01C123.73 28.06 124.02 28.08 124.3 28.07C124.45 28.07 124.61 28.07 124.76 28.06ZM150.59 27.47C150.71 27.47 150.83 27.47 150.94 27.49C151.06 27.5 151.17 27.53 151.28 27.56C151.39 27.6 151.5 27.64 151.6 27.7C151.7 27.75 151.8 27.82 151.88 27.89C151.97 27.97 152.04 28.05 152.1 28.14C152.17 28.24 152.22 28.33 152.26 28.44C152.3 28.54 152.33 28.65 152.35 28.76C152.37 28.87 152.37 28.98 152.36 29.09C152.37 29.2 152.37 29.32 152.35 29.43C152.33 29.54 152.3 29.65 152.26 29.75C152.22 29.86 152.16 29.96 152.1 30.05C152.04 30.14 151.97 30.23 151.88 30.31C151.8 30.38 151.7 30.45 151.6 30.51C151.5 30.56 151.39 30.61 151.28 30.65C151.17 30.68 151.06 30.71 150.95 30.73C150.83 30.74 150.72 30.75 150.6 30.74L137.79 30.74C137.66 30.75 137.53 30.74 137.41 30.73C137.28 30.71 137.15 30.68 137.03 30.63C136.91 30.59 136.8 30.53 136.69 30.46C136.58 30.4 136.47 30.32 136.38 30.23C136.29 30.14 136.21 30.04 136.15 29.93C136.08 29.82 136.02 29.7 135.98 29.58C135.94 29.46 135.91 29.33 135.89 29.21C135.87 29.08 135.86 28.95 135.87 28.82L135.87 12.38C135.86 12.26 135.87 12.13 135.88 12C135.9 11.88 135.93 11.75 135.97 11.63C136.01 11.51 136.06 11.4 136.12 11.28C136.18 11.17 136.25 11.07 136.34 10.97C136.42 10.88 136.52 10.81 136.62 10.74C136.72 10.67 136.83 10.62 136.95 10.57C137.06 10.53 137.18 10.5 137.3 10.48C137.42 10.46 137.55 10.45 137.67 10.46C137.79 10.46 137.91 10.46 138.03 10.48C138.15 10.5 138.26 10.53 138.38 10.58C138.49 10.62 138.59 10.67 138.69 10.74C138.79 10.81 138.89 10.89 138.97 10.97C139.05 11.07 139.12 11.17 139.18 11.28C139.25 11.4 139.3 11.51 139.34 11.63C139.38 11.75 139.41 11.88 139.42 12C139.44 12.13 139.44 12.26 139.44 12.38L139.44 27.47L150.59 27.47Z" />
		<path id="Path_28989" class="shp3" d="M159.73 18.45C160.17 18.24 160.65 18.1 161.13 18.02C161.61 17.94 162.11 17.93 162.6 17.98C163.08 18.04 163.56 18.16 164.02 18.34C164.47 18.53 164.9 18.77 165.29 19.07C169.22 20.16 170 19.63 170 19.63C170 19.63 171.92 30.18 164.75 30.76C157.58 31.34 159.73 18.45 159.73 18.45Z" />
		<path id="Path_28990" class="shp4" d="M169.73 19.2C169.39 18.82 168.98 18.5 168.52 18.27C168.06 18.04 167.56 17.9 167.04 17.86C166.53 17.83 166.02 17.89 165.53 18.05C165.04 18.21 164.58 18.46 164.19 18.79C163.87 19.07 163.51 19.29 163.13 19.46C162.74 19.62 162.33 19.72 161.91 19.76C161.49 19.8 161.07 19.77 160.66 19.67C160.25 19.58 159.85 19.42 159.49 19.2C159.13 18.99 154.74 26.59 155.16 29.78C156.06 32.1 161.4 30.46 164.43 30.7C167.74 30.97 172.71 32.45 173.98 29.78C173.73 26.64 169.78 19.27 169.73 19.2Z" />
		<path id="Path_28991" fill-rule="evenodd" class="shp5" d="M174.48 29.02C174.61 29.26 174.68 29.54 174.66 29.83C174.65 30.11 174.56 30.38 174.41 30.62C174.25 30.86 174.03 31.05 173.78 31.17C173.52 31.29 173.24 31.34 172.96 31.32L156 31.32C155.86 31.32 155.72 31.31 155.58 31.29C155.45 31.26 155.31 31.21 155.19 31.15C155.06 31.09 154.95 31.01 154.84 30.92C154.73 30.83 154.64 30.73 154.56 30.62C154.49 30.49 154.44 30.37 154.4 30.23C154.36 30.1 154.34 29.96 154.34 29.82C154.34 29.68 154.35 29.54 154.39 29.4C154.42 29.27 154.47 29.14 154.54 29.02L161.19 14.71C161.21 14.66 161.23 14.6 161.25 14.55C161.26 14.5 161.28 14.44 161.29 14.39C161.3 14.33 161.31 14.28 161.32 14.22C161.33 14.17 161.33 14.11 161.33 14.05L161.33 12.51C161.33 12.46 161.32 12.41 161.3 12.37C161.29 12.32 161.26 12.27 161.24 12.23C161.21 12.18 161.18 12.14 161.15 12.11C161.11 12.07 161.07 12.04 161.03 12.01C160.77 11.83 160.57 11.57 160.47 11.27C160.37 10.97 160.36 10.64 160.45 10.34C160.55 10.04 160.74 9.77 160.99 9.58C161.25 9.4 161.56 9.29 161.88 9.3L167.38 9.3C167.71 9.29 168.03 9.4 168.29 9.6C168.55 9.81 168.74 10.09 168.82 10.41C168.91 10.73 168.88 11.06 168.75 11.37C168.62 11.67 168.39 11.92 168.1 12.08C168.06 12.11 168.02 12.13 167.98 12.17C167.94 12.2 167.91 12.24 167.88 12.28C167.86 12.32 167.83 12.37 167.82 12.41C167.8 12.46 167.79 12.51 167.78 12.56L167.78 13.89C167.79 13.95 167.79 14 167.8 14.06C167.8 14.11 167.81 14.17 167.82 14.23C167.83 14.28 167.85 14.34 167.86 14.39C167.88 14.44 167.9 14.5 167.92 14.55L174.48 29.01L174.48 29.02ZM169.71 21.39L166.88 14.76C166.86 14.71 166.85 14.66 166.83 14.6C166.82 14.55 166.8 14.49 166.79 14.44C166.78 14.38 166.78 14.33 166.77 14.27C166.76 14.21 166.76 14.16 166.76 14.1L166.76 11.64C166.76 11.59 166.76 11.54 166.77 11.5C166.78 11.46 166.81 11.41 166.83 11.38C166.86 11.34 166.9 11.31 166.94 11.29C166.98 11.27 167.02 11.25 167.07 11.24L167.37 11.24C167.49 11.24 167.6 11.19 167.69 11.1C167.77 11.02 167.81 10.9 167.81 10.79C167.81 10.67 167.77 10.55 167.69 10.47C167.6 10.38 167.49 10.33 167.37 10.33L161.87 10.33C161.76 10.33 161.65 10.38 161.56 10.47C161.48 10.55 161.44 10.67 161.44 10.79C161.44 10.9 161.48 11.02 161.56 11.1C161.65 11.19 161.76 11.24 161.87 11.24L162.11 11.24C162.24 11.24 162.34 11.42 162.34 11.64L162.34 14.28C162.34 14.34 162.34 14.39 162.33 14.45C162.33 14.5 162.32 14.56 162.31 14.61C162.3 14.67 162.29 14.72 162.27 14.78C162.26 14.83 162.24 14.88 162.22 14.94L159.22 21.4C159.14 21.57 155.44 29.7 155.44 29.71C155.44 29.71 155.17 30.25 155.73 30.25C160.2 30.3 173.31 30.3 173.31 30.25C173.89 30.22 173.53 29.66 173.53 29.66C173.58 29.68 169.79 21.57 169.71 21.39Z" />
		<g id="Group_1040">
			<path id="Path_28966" class="shp0" d="M168.42 26.53L164.55 20.18C164.51 20.11 164.44 20.05 164.37 20.01C164.3 19.97 164.22 19.95 164.13 19.95C164.05 19.95 163.97 19.97 163.9 20.01C163.82 20.05 163.76 20.11 163.72 20.18L159.84 26.53C159.78 26.62 159.76 26.74 159.78 26.86C159.8 26.97 159.86 27.08 159.95 27.15C160.04 27.23 160.16 27.27 160.27 27.26C160.39 27.26 160.5 27.22 160.59 27.14C161.07 26.7 161.63 26.36 162.24 26.13C162.84 25.9 163.49 25.78 164.14 25.78C164.79 25.78 165.43 25.9 166.04 26.13C166.64 26.36 167.2 26.7 167.69 27.14C167.77 27.22 167.89 27.26 168 27.27C168.12 27.27 168.23 27.23 168.32 27.16C168.42 27.08 168.48 26.98 168.5 26.86C168.51 26.74 168.49 26.63 168.43 26.53L168.42 26.53Z" />
		</g>
	</g>
</svg>