<?xml version="1.0" encoding="UTF-8" standalone="no"?>
<!-- Created with Inkscape (http://www.inkscape.org/) -->

<svg
   xmlns:dc="http://purl.org/dc/elements/1.1/"
   xmlns:cc="http://creativecommons.org/ns#"
   xmlns:rdf="http://www.w3.org/1999/02/22-rdf-syntax-ns#"
   xmlns:svg="http://www.w3.org/2000/svg"
   xmlns="http://www.w3.org/2000/svg"
   xmlns:sodipodi="http://sodipodi.sourceforge.net/DTD/sodipodi-0.dtd"
   xmlns:inkscape="http://www.inkscape.org/namespaces/inkscape"
   width="349.47906"
   height="414.56781"
   id="svg4046"
   version="1.1"
   inkscape:version="0.48.4 r9939"
   sodipodi:docname="Neues Dokument 3">
  <defs
     id="defs4048">
    <filter
       color-interpolation-filters="sRGB"
       inkscape:collect="always"
       id="filter4243">
      <feGaussianBlur
         inkscape:collect="always"
         stdDeviation="19.837057"
         id="feGaussianBlur4245" />
    </filter>
  </defs>
  <sodipodi:namedview
     id="base"
     pagecolor="#ffffff"
     bordercolor="#666666"
     borderopacity="1.0"
     inkscape:pageopacity="0.0"
     inkscape:pageshadow="2"
     inkscape:zoom="0.35"
     inkscape:cx="174.73953"
     inkscape:cy="207.2839"
     inkscape:document-units="px"
     inkscape:current-layer="layer1"
     showgrid="false"
     fit-margin-top="0"
     fit-margin-left="0"
     fit-margin-right="0"
     fit-margin-bottom="0"
     inkscape:window-width="1052"
     inkscape:window-height="755"
     inkscape:window-x="621"
     inkscape:window-y="274"
     inkscape:window-maximized="0" />
  <metadata
     id="metadata4051">
    <rdf:RDF>
      <cc:Work
         rdf:about="">
        <dc:format>image/svg+xml</dc:format>
        <dc:type
           rdf:resource="http://purl.org/dc/dcmitype/StillImage" />
        <dc:title></dc:title>
      </cc:Work>
    </rdf:RDF>
  </metadata>
  <g
     inkscape:label="Ebene 1"
     inkscape:groupmode="layer"
     id="layer1"
     transform="translate(-175.26047,-325.07828)">
    <g
       id="g3390"
       transform="matrix(0.35142463,0,0,-0.35142463,184.6321,726.22209)"
       style="opacity:0.5;fill:#000000;display:inline;filter:url(#filter4243)">
      <path
         inkscape:connector-curvature="0"
         d="m 467.309,1079.88 c 9.589,-1.72 20.742,-3.04 19.16,-5.33 10.492,2.3 12.883,4.42 -19.16,5.33"
         style="fill:#000000;fill-opacity:1;fill-rule:nonzero;stroke:none"
         id="path3392" />
      <path
         inkscape:connector-curvature="0"
         d="m 486.469,1074.55 -6.77,-1.4 6.313,0.56 0.457,0.84"
         style="fill:#000000;fill-opacity:1;fill-rule:nonzero;stroke:none"
         id="path3394" />
      <path
         inkscape:connector-curvature="0"
         d="m 785.52,625.309 c 1.07,-29.059 -8.489,-43.161 -17.129,-68.118 l -15.532,-7.761 c -12.699,-24.68 1.243,-15.68 -7.871,-35.309 -19.84,-17.641 -27.37497,-44.61629 -40.28497,-48.05829 -9.449,0.211 -24.77056,-25.74264 -22.70056,-21.46564 -26.562,-18.238 0.93254,-12.11912 -39.68846,-23.19812 l -19.61782,-12.61788 c -100.191,-47.133 -232.35834,22.74588 -230.52634,150.18288 -1.07,-8.09 -3.043,-6.07 -5.261,-9.34 -5.168,65.571 30.281,131.43 90.07,158.321 58.488,28.949 127.039,17.07 168.941,-21.969 -23.011,30.14 -81.39994,90.86243 -135.67694,87.86943 -53.172,-0.839 -133.48171,-41.82111 -150.08271,-78.50111 -27.238,-17.149 -35.79383,-93.08415 -47.66483,-102.04415 -15.98,-117.372 53.4096,-187.85205 131.2486,-247.50005 12.239,-8.262 3.438,-9.512 5.098,-15.801 -25.859,12.109 -56.7321,44.77722 -76.2011,67.15622 10.328,-15.11 28.6741,-44.20722 43.0841,-55.74622 -24.383,8.262 -64.1461,59.078 -73.6541,61.149 42.027,-75.258 177.7011,-131.969 245.0021,-103.829 -31.141,-1.148 -70.688,-0.64 -105.668,12.29 -14.704,7.55 -34.68,23.218 -31.102,26.152 91.809,-34.301 226.34318,9.45784 305.78018,73.14584 20.223,15.742 53.09067,65.8966 59.46967,66.2686 -9.609,-14.45 -18.14005,0.24311 -25.51905,-12.50689 20.129,32.481 2.03966,-8.36033 31.59766,34.51067 l 5.52717,2.94377 c -4.062,26.969 44.27866,57.91272 40.45766,100.54972 8.621,13.043 9.61,-14.028 0.473,-44.028 12.68,33.278 3.348,38.629 6.598,66.09 3.519,-9.23 8.152,-19.043 10.519,-28.781 -8.269,32.16 8.461,54.16 12.609,72.852 -4.089,1.808 -12.75,-14.223 -14.718,23.769 0.281,16.5 4.59,8.649 6.242,12.711 -3.242,1.859 -11.742,14.508 -16.91,38.77 3.738,5.699 10.019,-14.782 15.109,-15.622 -3.269,19.29 -8.922,34 -9.16,48.801 -14.902,31.141 -5.27,-4.152 -17.359,13.367 -15.852,49.473 13.16,11.481 15.117,33.961 24.051,-34.828 37.75,-88.808 44.051,-111.168 -4.809,27.258 -12.559,53.668 -22.051,79.219 7.32,-3.07 -11.75,56.09 9.511,16.91 -22.71,83.52 -131.31526,175.94522 -199.81526,212.56622 8.367,-7.67 18.957,-17.3 15.156,-18.81 -34.058,20.28 -28.078,21.86 -32.957,30.43 -27.742,11.29 -29.562,-0.91 -47.941,-0.02 -52.301,27.74 -62.379,24.79 -110.508,42.17 l 2.188,-10.23 c -34.649,11.54 -40.379,-4.38 -77.821,-0.04 -2.277,1.78 11.992,6.44 23.75,8.15 -33.5,-4.42 -31.929,6.6 -64.711,-1.22 8.082,5.67 16.621,9.42 25.242,14.24 -27.32,-1.66 -65.218,-15.9 -53.519,-2.95 -44.563,-19.88 -123.699,-47.79 -168.109,-89.431 l -1.403,9.331 c -20.347,-24.429 -88.738,-72.96 -94.187,-104.6 l -5.442,-1.27 C 106.98,879.32 100.129,859 91.7305,840.551 77.8789,816.949 71.4297,831.469 73.3984,827.77 46.1602,772.539 32.6289,726.129 20.9414,688.07 29.2695,675.621 21.1406,613.121 24.2891,563.102 10.6094,316.051 197.672,76.1914 402.141,20.8203 432.109,10.1016 476.672,10.5117 514.582,9.41016 c -44.73,12.80074 3.43631,28.360563 -40.12169,43.559763 -31.43,14.8008 -68.89171,19.111262 -91.15271,38.419862 l 8.808,-15.5586 c -43.656,15.4414 -16.39462,20.919377 -51.91462,32.169375 l 0.41462,10.47882 c -14.148,1.082 -37.476,22.05373 -43.859,34.67473 l -15.481,-0.609 c -18.597,22.949 -28.507,39.488 -27.789,52.308 l -5,-8.91 c -5.668,9.73 -72.02555,78.87689 -39.46755,61.10789 -6.047,5.531 -14.09,9 -22.808,24.847 l 6.629,7.571 c -15.668,20.16 -28.84,46 -27.84,54.613 8.363,-11.293 14.16,-13.402 19.902,-15.332 -39.57,98.18 -0.5725,5.41 -30.5451,99.941 l 6.3398,0.508 c -4.8594,7.321 -7.8086,15.27 -11.7187,23.071 l 2.7578,27.5 c -28.4688,32.89 -7.9492,79.01345 -3.8399,137.76345 2.8516,23.891 23.7816,49.321 39.7036,89.199 l -9.704,1.668 c 18.543,32.344 44.86645,129.883 85.30345,124.864 19.59,24.609 -3.89,0.09 -7.719,6.289 43.032,44.531 56.559,31.461 85.602,39.469 31.316,18.589 -26.883,-7.25 -12.031,7.089 54.14,13.832 38.371,31.442 109,38.461 7.449,-4.238 -17.289,-6.55 -23.5,-12.05 45.109,22.07 142.75,17.05 206.16,-12.25 C 694.309,865.88145 776.98,825.219 780.238,729.57 l 3.723,-1 c -1.871,-38.019 5.82,-81.988 -7.52,-122.379 l 9.079,19.118"
         style="fill:#000000;fill-opacity:1;fill-rule:nonzero;stroke:none"
         id="path3396"
         sodipodi:nodetypes="cccccccccccccccccccccccccccccccccccccccccccccccccccccccccccccccccccccccccccccccccccccccccccccccc" />
      <path
         inkscape:connector-curvature="0"
         d="m 339.32,496.23 -2.519,-12.601 c 11.808,-16.027 21.179,-33.41 36.258,-45.949 -10.848,21.172 -18.911,29.922 -33.739,58.55"
         style="fill:#000000;fill-opacity:1;fill-rule:nonzero;stroke:none"
         id="path3398" />
      <path
         inkscape:connector-curvature="0"
         d="m 367.238,497.32 c -6.25,6.918 -9.949,15.239 -14.09,23.52 3.961,-14.57 12.071,-27.09 19.622,-39.82 l -5.532,16.3"
         style="fill:#000000;fill-opacity:1;fill-rule:nonzero;stroke:none"
         id="path3400" />
      <path
         inkscape:connector-curvature="0"
         d="m 861.281,604.711 -2.633,-6.621 c -4.839,-34.379 -15.289,-68.399 -31.308,-99.942 17.691,33.282 29.129,69.684 33.941,106.563"
         style="fill:#000000;fill-opacity:1;fill-rule:nonzero;stroke:none"
         id="path3402" />
      <path
         inkscape:connector-curvature="0"
         d="m 470.879,1088.5 c 12.152,4.45 29.859,2.44 42.75,5.37 -16.797,-1.41 -33.508,-2.25 -50.039,-4.38 l 7.289,-0.99"
         style="fill:#000000;fill-opacity:1;fill-rule:nonzero;stroke:none"
         id="path3404" />
    </g>
    <g
       style="fill:#c70338;fill-opacity:1;display:inline"
       transform="matrix(0.35142463,0,0,-0.35142463,173.9613,711.54878)"
       id="g3374">
      <path
         id="path3376"
         style="fill:#c70338;fill-opacity:1;fill-rule:nonzero;stroke:none"
         d="m 467.309,1079.88 c 9.589,-1.72 20.742,-3.04 19.16,-5.33 10.492,2.3 12.883,4.42 -19.16,5.33"
         inkscape:connector-curvature="0" />
      <path
         id="path3378"
         style="fill:#c70338;fill-opacity:1;fill-rule:nonzero;stroke:none"
         d="m 486.469,1074.55 -6.77,-1.4 6.313,0.56 0.457,0.84"
         inkscape:connector-curvature="0" />
      <path
         sodipodi:nodetypes="cccccccccccccccccccccccccccccccccccccccccccccccccccccccccccccccccccccccccccccccccccccccccccccccc"
         id="path3380"
         style="fill:#c70338;fill-opacity:1;fill-rule:nonzero;stroke:none"
         d="m 785.52,625.309 c 1.07,-29.059 -8.489,-43.161 -17.129,-68.118 l -15.532,-7.761 c -12.699,-24.68 1.243,-15.68 -7.871,-35.309 -19.84,-17.641 -27.37497,-44.61629 -40.28497,-48.05829 -9.449,0.211 -24.77056,-25.74264 -22.70056,-21.46564 -26.562,-18.238 0.93254,-12.11912 -39.68846,-23.19812 l -19.61782,-12.61788 c -100.191,-47.133 -232.35834,22.74588 -230.52634,150.18288 -1.07,-8.09 -3.043,-6.07 -5.261,-9.34 -5.168,65.571 30.281,131.43 90.07,158.321 58.488,28.949 127.039,17.07 168.941,-21.969 -23.011,30.14 -81.39994,90.86243 -135.67694,87.86943 -53.172,-0.839 -133.48171,-41.82111 -150.08271,-78.50111 -27.238,-17.149 -35.79383,-93.08415 -47.66483,-102.04415 -15.98,-117.372 53.4096,-187.85205 131.2486,-247.50005 12.239,-8.262 3.438,-9.512 5.098,-15.801 -25.859,12.109 -56.7321,44.77722 -76.2011,67.15622 10.328,-15.11 28.6741,-44.20722 43.0841,-55.74622 -24.383,8.262 -64.1461,59.078 -73.6541,61.149 42.027,-75.258 177.7011,-131.969 245.0021,-103.829 -31.141,-1.148 -70.688,-0.64 -105.668,12.29 -14.704,7.55 -34.68,23.218 -31.102,26.152 91.809,-34.301 226.34318,9.45784 305.78018,73.14584 20.223,15.742 53.09067,65.8966 59.46967,66.2686 -9.609,-14.45 -18.14005,0.24311 -25.51905,-12.50689 20.129,32.481 2.03966,-8.36033 31.59766,34.51067 l 5.52717,2.94377 c -4.062,26.969 44.27866,57.91272 40.45766,100.54972 8.621,13.043 9.61,-14.028 0.473,-44.028 12.68,33.278 3.348,38.629 6.598,66.09 3.519,-9.23 8.152,-19.043 10.519,-28.781 -8.269,32.16 8.461,54.16 12.609,72.852 -4.089,1.808 -12.75,-14.223 -14.718,23.769 0.281,16.5 4.59,8.649 6.242,12.711 -3.242,1.859 -11.742,14.508 -16.91,38.77 3.738,5.699 10.019,-14.782 15.109,-15.622 -3.269,19.29 -8.922,34 -9.16,48.801 -14.902,31.141 -5.27,-4.152 -17.359,13.367 -15.852,49.473 13.16,11.481 15.117,33.961 24.051,-34.828 37.75,-88.808 44.051,-111.168 -4.809,27.258 -12.559,53.668 -22.051,79.219 7.32,-3.07 -11.75,56.09 9.511,16.91 -22.71,83.52 -131.31526,175.94522 -199.81526,212.56622 8.367,-7.67 18.957,-17.3 15.156,-18.81 -34.058,20.28 -28.078,21.86 -32.957,30.43 -27.742,11.29 -29.562,-0.91 -47.941,-0.02 -52.301,27.74 -62.379,24.79 -110.508,42.17 l 2.188,-10.23 c -34.649,11.54 -40.379,-4.38 -77.821,-0.04 -2.277,1.78 11.992,6.44 23.75,8.15 -33.5,-4.42 -31.929,6.6 -64.711,-1.22 8.082,5.67 16.621,9.42 25.242,14.24 -27.32,-1.66 -65.218,-15.9 -53.519,-2.95 -44.563,-19.88 -123.699,-47.79 -168.109,-89.431 l -1.403,9.331 c -20.347,-24.429 -88.738,-72.96 -94.187,-104.6 l -5.442,-1.27 C 106.98,879.32 100.129,859 91.7305,840.551 77.8789,816.949 71.4297,831.469 73.3984,827.77 46.1602,772.539 32.6289,726.129 20.9414,688.07 29.2695,675.621 21.1406,613.121 24.2891,563.102 10.6094,316.051 197.672,76.1914 402.141,20.8203 432.109,10.1016 476.672,10.5117 514.582,9.41016 c -44.73,12.80074 3.43631,28.360563 -40.12169,43.559763 -31.43,14.8008 -68.89171,19.111262 -91.15271,38.419862 l 8.808,-15.5586 c -43.656,15.4414 -16.39462,20.919377 -51.91462,32.169375 l 0.41462,10.47882 c -14.148,1.082 -37.476,22.05373 -43.859,34.67473 l -15.481,-0.609 c -18.597,22.949 -28.507,39.488 -27.789,52.308 l -5,-8.91 c -5.668,9.73 -72.02555,78.87689 -39.46755,61.10789 -6.047,5.531 -14.09,9 -22.808,24.847 l 6.629,7.571 c -15.668,20.16 -28.84,46 -27.84,54.613 8.363,-11.293 14.16,-13.402 19.902,-15.332 -39.57,98.18 -0.5725,5.41 -30.5451,99.941 l 6.3398,0.508 c -4.8594,7.321 -7.8086,15.27 -11.7187,23.071 l 2.7578,27.5 c -28.4688,32.89 -7.9492,79.01345 -3.8399,137.76345 2.8516,23.891 23.7816,49.321 39.7036,89.199 l -9.704,1.668 c 18.543,32.344 44.86645,129.883 85.30345,124.864 19.59,24.609 -3.89,0.09 -7.719,6.289 43.032,44.531 56.559,31.461 85.602,39.469 31.316,18.589 -26.883,-7.25 -12.031,7.089 54.14,13.832 38.371,31.442 109,38.461 7.449,-4.238 -17.289,-6.55 -23.5,-12.05 45.109,22.07 142.75,17.05 206.16,-12.25 C 694.309,865.88145 776.98,825.219 780.238,729.57 l 3.723,-1 c -1.871,-38.019 5.82,-81.988 -7.52,-122.379 l 9.079,19.118"
         inkscape:connector-curvature="0" />
      <path
         id="path3382"
         style="fill:#c70338;fill-opacity:1;fill-rule:nonzero;stroke:none"
         d="m 339.32,496.23 -2.519,-12.601 c 11.808,-16.027 21.179,-33.41 36.258,-45.949 -10.848,21.172 -18.911,29.922 -33.739,58.55"
         inkscape:connector-curvature="0" />
      <path
         id="path3384"
         style="fill:#c70338;fill-opacity:1;fill-rule:nonzero;stroke:none"
         d="m 367.238,497.32 c -6.25,6.918 -9.949,15.239 -14.09,23.52 3.961,-14.57 12.071,-27.09 19.622,-39.82 l -5.532,16.3"
         inkscape:connector-curvature="0" />
      <path
         id="path3386"
         style="fill:#c70338;fill-opacity:1;fill-rule:nonzero;stroke:none"
         d="m 861.281,604.711 -2.633,-6.621 c -4.839,-34.379 -15.289,-68.399 -31.308,-99.942 17.691,33.282 29.129,69.684 33.941,106.563"
         inkscape:connector-curvature="0" />
      <path
         id="path3388"
         style="fill:#c70338;fill-opacity:1;fill-rule:nonzero;stroke:none"
         d="m 470.879,1088.5 c 12.152,4.45 29.859,2.44 42.75,5.37 -16.797,-1.41 -33.508,-2.25 -50.039,-4.38 l 7.289,-0.99"
         inkscape:connector-curvature="0" />
    </g>
  </g>
</svg>
