<svg xmlns="http://www.w3.org/2000/svg" xmlns:xlink="http://www.w3.org/1999/xlink" version="1.1" font-family="sans-serif, droid-sans, helvetica, verdana, tahoma" viewbox="0 0 600 333" width="600" height="333" preserveAspectRatio="xMinYMin meet"><rect x="0" y="0" width="600" height="333" fill="#FEFEFE" stroke="#757575" stroke-width="2"/><g stroke="#757575" stroke-width="1"><line x1="180" y1="64" x2="180" y2="295"/><line x1="180" y1="294" x2="586" y2="294"/></g><a xlink:href="https://www.openbenchmarking.org/" xlink:show="new"><text x="585" y="59" font-size="8" fill="#065695" text-anchor="end" xlink:show="new">OpenBenchmarking.org</text></a><polygon points="189,56 180,60.5 180,51.5" fill="#065695" stroke="#949494" stroke-width="1"/><text x="192" y="59" font-size="8" fill="#065695" text-anchor="start">Frames Per Second, More Is Better</text><rect x="0" y="0" width="600" height="48" fill="#231f20"/><a xlink:href="https://openbenchmarking.org/test/pts/bioshock-infinite-1.0.2" xlink:show="new"><text x="6" y="19" font-size="17" fill="#FEFEFE" text-anchor="start" xlink:show="new" font-weight="bold">BioShock Infinite</text></a><text x="6" y="36" font-size="11" font-weight="bold" fill="#FEFEFE" text-anchor="start">Resolution: 2560 x 1440 - Effects Quality: High</text><path d="m74 22v9m-5-16v16m-5-28v28m-23-2h12.5c2.485281 0 4.5-2.014719 4.5-4.5s-2.014719-4.5-4.5-4.5h-8c-2.485281 0-4.5-2.014719-4.5-4.5s2.014719-4.5 4.5-4.5h12.5m-21 5h-11m11 13h-2c-4.970563 0-9-4.029437-9-9v-20m-24 40v-20c0-4.970563 4.0294373-9 9-9 4.970563 0 9 4.029437 9 9s-4.029437 9-9 9h-9" stroke="#ffffff" stroke-width="4" fill="none" transform="translate(508,4)"/><line x1="180" y1="110" x2="180" y2="283" stroke="#757575" stroke-width="11" stroke-dasharray="1,45"/><g font-size="10" fill="#231f20" font-weight="bold"><text x="175" y="85" text-anchor="end">Liquorix 5.4.0-6.3</text><text x="175" y="131" text-anchor="end">Liquorix 5.4.0-8.2</text><text x="175" y="177" text-anchor="end">Linux 5.4.6 low-latency</text><text x="175" y="223" text-anchor="end">Linux 5.4.6</text><text x="175" y="269" text-anchor="end">Xanmod5 5.4.8</text></g><g font-size="10" fill="#065695" text-anchor="middle"><text x="250" y="309">40</text><text x="318" y="309">80</text><text x="386" y="309">120</text><text x="454" y="309">160</text><text x="522" y="309">200</text></g><g stroke="#BABABA" stroke-width="1"><line x1="250" y1="64" x2="250" y2="289" stroke-dasharray="5,5"/><line x1="250" y1="290" x2="250" y2="299"/><line x1="318" y1="64" x2="318" y2="289" stroke-dasharray="5,5"/><line x1="318" y1="290" x2="318" y2="299"/><line x1="386" y1="64" x2="386" y2="289" stroke-dasharray="5,5"/><line x1="386" y1="290" x2="386" y2="299"/><line x1="454" y1="64" x2="454" y2="289" stroke-dasharray="5,5"/><line x1="454" y1="290" x2="454" y2="299"/><line x1="522" y1="64" x2="522" y2="289" stroke-dasharray="5,5"/><line x1="522" y1="290" x2="522" y2="299"/></g><g stroke="#949494" stroke-width="1"><rect x="180" y="70" height="34" width="286" fill="#2196f3"/><rect x="180" y="116" height="34" width="297" fill="#2196f3"/><rect x="180" y="162" height="34" width="317" fill="#2196f3"/><rect x="180" y="208" height="34" width="324" fill="#2196f3"/><rect x="180" y="254" height="34" width="326" fill="#1769aa"/></g><g font-size="8" fill="#065695" text-anchor="end"><text y="101" x="175">SE +/- 0.76, N = 3</text><text y="147" x="175">SE +/- 0.81, N = 3</text><text y="193" x="175">SE +/- 2.61, N = 3</text><text y="239" x="175">SE +/- 1.98, N = 8</text><text y="285" x="175">SE +/- 1.62, N = 15</text></g><g font-size="10" fill="#FFFFFF" font-weight="bold" text-anchor="end"><text x="461" y="93">169.55</text><text x="472" y="139">175.87</text><text x="492" y="185">187.71</text><text x="499" y="231">191.98</text><text x="501" y="277">193.23</text></g><g font-size="7" fill="#FFFFFF" text-anchor="start"><text x="184" y="79">MIN: 34.22 / MAX: 171.06</text><text x="184" y="125">MIN: 35.04 / MAX: 177.44</text><text x="184" y="171">MIN: 35.6 / MAX: 191.26</text><text x="184" y="217">MIN: 22.42 / MAX: 202.1</text><text x="184" y="263">MIN: 35.16 / MAX: 202.75</text></g><rect x="0" y="316" width="600" height="17" fill="#231f20"/><a xlink:href="https://www.phoronix-test-suite.com/" xlink:show="new"><text x="585" y="328" font-size="9" fill="#FEFEFE" text-anchor="end" xlink:show="new">Phoronix Test Suite 9.2.0</text></a><a xlink:href="/prospect/2001094-PTS-LIQUORIX33/18808d6d51cd40e569110ac962028a02d4e3d867" xlink:show="new"><g transform="translate(4,317)" width="10" height="16"><path d="M5 0v6.5L0 11l3-3-3-3.5L5 0" fill="#038bb8"/><path d="M5 0v6.5l5 4.5-3-3 3-3.5L5 0" fill="#25b3e8"/><path d="M5 16V9l5-4.5V11l-5 5" fill="#e4f4fd"/><path d="M5 16V9L0 4.5V11l5 5" fill="#65cbf4"/></g></a></svg>
